<?xml version="1.0" encoding="UTF-8"?>
<!DOCTYPE svg PUBLIC "-//W3C//DTD SVG 1.1//EN" "http://www.w3.org/Graphics/SVG/1.1/DTD/svg11.dtd">
<svg xmlns="http://www.w3.org/2000/svg" version="1.1" width="580px" height="633px" style="shape-rendering:geometricPrecision; text-rendering:geometricPrecision; image-rendering:optimizeQuality; fill-rule:evenodd; clip-rule:evenodd" xmlns:xlink="http://www.w3.org/1999/xlink">
<g><path style="opacity:1" fill="#fefefe" d="M -0.5,-0.5 C 15.5,-0.5 31.5,-0.5 47.5,-0.5C 47.5,6.16667 47.5,12.8333 47.5,19.5C 208.833,19.5 370.167,19.5 531.5,19.5C 531.5,12.8333 531.5,6.16667 531.5,-0.5C 547.5,-0.5 563.5,-0.5 579.5,-0.5C 579.5,210.5 579.5,421.5 579.5,632.5C 386.167,632.5 192.833,632.5 -0.5,632.5C -0.5,421.5 -0.5,210.5 -0.5,-0.5 Z"/></g>
<g><path style="opacity:1" fill="#000000" d="M 47.5,-0.5 C 208.833,-0.5 370.167,-0.5 531.5,-0.5C 531.5,6.16667 531.5,12.8333 531.5,19.5C 370.167,19.5 208.833,19.5 47.5,19.5C 47.5,12.8333 47.5,6.16667 47.5,-0.5 Z"/></g>
<g><path style="opacity:1" fill="#000000" d="M 531.5,19.5 C 539.5,19.5 547.5,19.5 555.5,19.5C 555.5,27.1667 555.5,34.8333 555.5,42.5C 547.5,42.5 539.5,42.5 531.5,42.5C 531.5,34.8333 531.5,27.1667 531.5,19.5 Z"/></g>
<g><path style="opacity:1" fill="#000000" d="M 23.5,20.5 C 31.5,20.5 39.5,20.5 47.5,20.5C 47.5,27.8333 47.5,35.1667 47.5,42.5C 39.5,42.5 31.5,42.5 23.5,42.5C 23.5,35.1667 23.5,27.8333 23.5,20.5 Z"/></g>
<g><path style="opacity:1" fill="#000000" d="M 555.5,42.5 C 562.584,41.8745 569.25,42.5411 575.5,44.5C 575.5,45.5 575.5,46.5 575.5,47.5C 575.5,205.5 575.5,363.5 575.5,521.5C 568.833,521.5 562.167,521.5 555.5,521.5C 555.5,376.167 555.5,230.833 555.5,85.5C 555.5,71.1667 555.5,56.8333 555.5,42.5 Z"/></g>
<g><path style="opacity:1" fill="#000000" d="M 23.5,85.5 C 22.8349,231.17 23.5015,376.504 25.5,521.5C 32.8333,521.5 40.1667,521.5 47.5,521.5C 47.5,529.167 47.5,536.833 47.5,544.5C 39.5,544.5 31.5,544.5 23.5,544.5C 23.5,538.833 23.5,533.167 23.5,527.5C 23.5,525.833 23.5,524.167 23.5,522.5C 16.8333,522.5 10.1667,522.5 3.5,522.5C 3.5,364.5 3.5,206.5 3.5,48.5C 3.5,47.8333 3.5,47.1667 3.5,46.5C 3.5,45.5 3.5,44.5 3.5,43.5C 10.1667,43.5 16.8333,43.5 23.5,43.5C 23.5,57.5 23.5,71.5 23.5,85.5 Z"/></g>
<g><path style="opacity:1" fill="#d8d8d8" d="M 553.5,85.5 C 553.5,230.833 553.5,376.167 553.5,521.5C 546.167,521.5 538.833,521.5 531.5,521.5C 531.5,529.167 531.5,536.833 531.5,544.5C 370.167,544.5 208.833,544.5 47.5,544.5C 47.5,536.833 47.5,529.167 47.5,521.5C 40.1667,521.5 32.8333,521.5 25.5,521.5C 26.1597,376.305 26.1597,230.971 25.5,85.5C 32.8333,85.5 40.1667,85.5 47.5,85.5C 47.5,78.8333 47.5,72.1667 47.5,65.5C 55.5,65.5 63.5,65.5 71.5,65.5C 71.5,58.1667 71.5,50.8333 71.5,43.5C 216.833,43.5 362.167,43.5 507.5,43.5C 507.5,50.1667 507.5,56.8333 507.5,63.5C 515.5,63.5 523.5,63.5 531.5,63.5C 531.5,70.8333 531.5,78.1667 531.5,85.5C 538.833,85.5 546.167,85.5 553.5,85.5 Z"/></g>
<g><path style="opacity:1" fill="#000000" d="M 467.5,85.5 C 350.167,85.5 232.833,85.5 115.5,85.5C 115.5,78.1667 115.5,70.8333 115.5,63.5C 232.833,63.5 350.167,63.5 467.5,63.5C 467.5,70.8333 467.5,78.1667 467.5,85.5 Z"/></g>
<g><path style="opacity:1" fill="#000000" d="M 115.5,85.5 C 115.5,87.8333 115.5,90.1667 115.5,92.5C 115.5,97.8333 115.5,103.167 115.5,108.5C 107.5,108.5 99.5,108.5 91.5,108.5C 91.5,100.833 91.5,93.1667 91.5,85.5C 99.5,85.5 107.5,85.5 115.5,85.5 Z"/></g>
<g><path style="opacity:1" fill="#000000" d="M 467.5,85.5 C 475.5,85.5 483.5,85.5 491.5,85.5C 491.5,93.1667 491.5,100.833 491.5,108.5C 483.5,108.5 475.5,108.5 467.5,108.5C 467.5,100.833 467.5,93.1667 467.5,85.5 Z"/></g>
<g><path style="opacity:1" fill="#7a7a7a" d="M 115.5,85.5 C 232.833,85.5 350.167,85.5 467.5,85.5C 467.5,93.1667 467.5,100.833 467.5,108.5C 475.5,108.5 483.5,108.5 491.5,108.5C 491.5,126.167 491.5,143.833 491.5,161.5C 490.669,146.339 490.169,131.005 490,115.5C 482.475,114.948 474.975,114.115 467.5,113C 465.379,109.826 465.046,106.493 466.5,103C 465.703,99.2546 465.203,95.4213 465,91.5C 464.617,90.944 464.117,90.6107 463.5,90.5C 351.001,89.3341 238.334,89.1674 125.5,90C 121.843,90.0498 118.51,90.8832 115.5,92.5C 115.5,90.1667 115.5,87.8333 115.5,85.5 Z"/></g>
<g><path style="opacity:1" fill="#888888" d="M 463.5,90.5 C 464.117,90.6107 464.617,90.944 465,91.5C 465.203,95.4213 465.703,99.2546 466.5,103C 465.046,106.493 465.379,109.826 467.5,113C 474.975,114.115 482.475,114.948 490,115.5C 490.169,131.005 490.669,146.339 491.5,161.5C 491.5,248.5 491.5,335.5 491.5,422.5C 483.5,422.5 475.5,422.5 467.5,422.5C 467.5,430.167 467.5,437.833 467.5,445.5C 350.167,445.5 232.833,445.5 115.5,445.5C 115.5,437.833 115.5,430.167 115.5,422.5C 108.167,422.5 100.833,422.5 93.5,422.5C 93.2001,320.301 93.2001,217.634 93.5,114.5C 100.947,114.929 108.281,114.429 115.5,113C 116.126,112.25 116.626,111.416 117,110.5C 117.236,104.014 117.403,97.6802 117.5,91.5C 232.773,91.5825 348.107,91.2492 463.5,90.5 Z"/></g>
<g><path style="opacity:1" fill="#000000" d="M 91.5,108.5 C 91.5,213.167 91.5,317.833 91.5,422.5C 83.5,422.5 75.5,422.5 67.5,422.5C 67.5,319.833 67.5,217.167 67.5,114.5C 67.5,112.5 67.5,110.5 67.5,108.5C 75.5,108.5 83.5,108.5 91.5,108.5 Z"/></g>
<g><path style="opacity:1" fill="#000000" d="M 491.5,108.5 C 499.5,108.5 507.5,108.5 515.5,108.5C 515.5,110.5 515.5,112.5 515.5,114.5C 515.5,217.167 515.5,319.833 515.5,422.5C 507.5,422.5 499.5,422.5 491.5,422.5C 491.5,335.5 491.5,248.5 491.5,161.5C 491.5,143.833 491.5,126.167 491.5,108.5 Z"/></g>
<g><path style="opacity:1" fill="#bdbdbd" d="M 67.5,114.5 C 67.5,217.167 67.5,319.833 67.5,422.5C 67.5,424.167 67.5,425.833 67.5,427.5C 67.5,433.5 67.5,439.5 67.5,445.5C 75.1667,445.5 82.8333,445.5 90.5,445.5C 90.8333,445.5 91.1667,445.5 91.5,445.5C 91.5,447.167 91.5,448.833 91.5,450.5C 91.5,456.5 91.5,462.5 91.5,468.5C 99.1667,468.5 106.833,468.5 114.5,468.5C 114.833,468.5 115.167,468.5 115.5,468.5C 115.5,468.833 115.5,469.167 115.5,469.5C 115.5,470.833 115.5,472.167 115.5,473.5C 107.777,473.8 100.11,473.467 92.5,472.5C 91.8076,471.975 91.3076,471.308 91,470.5C 90.5004,463.842 90.3337,457.175 90.5,450.5C 82.8333,450.5 75.1667,450.5 67.5,450.5C 66.1718,338.36 66.1718,226.36 67.5,114.5 Z"/></g>
<g><path style="opacity:1" fill="#c0c0c0" d="M 515.5,114.5 C 516.666,226.333 516.833,338.333 516,450.5C 508.913,451.315 501.747,451.815 494.5,452C 493.686,458.753 493.186,465.586 493,472.5C 492.5,473 492,473.5 491.5,474C 483.602,475.08 475.602,475.247 467.5,474.5C 467.5,472.833 467.5,471.167 467.5,469.5C 467.5,469.167 467.5,468.833 467.5,468.5C 475.5,468.5 483.5,468.5 491.5,468.5C 491.5,460.833 491.5,453.167 491.5,445.5C 499.5,445.5 507.5,445.5 515.5,445.5C 515.666,438.825 515.5,432.158 515,425.5C 507.253,426.482 499.42,426.815 491.5,426.5C 491.5,425.167 491.5,423.833 491.5,422.5C 499.5,422.5 507.5,422.5 515.5,422.5C 515.5,319.833 515.5,217.167 515.5,114.5 Z"/></g>
<g><path style="opacity:1" fill="#7f7f7f" d="M 463.5,90.5 C 348.107,91.2492 232.773,91.5825 117.5,91.5C 117.403,97.6802 117.236,104.014 117,110.5C 116.626,111.416 116.126,112.25 115.5,113C 108.281,114.429 100.947,114.929 93.5,114.5C 93.2001,217.634 93.2001,320.301 93.5,422.5C 92.8333,422.5 92.1667,422.5 91.5,422.5C 91.5,317.833 91.5,213.167 91.5,108.5C 99.5,108.5 107.5,108.5 115.5,108.5C 115.5,103.167 115.5,97.8333 115.5,92.5C 118.51,90.8832 121.843,90.0498 125.5,90C 238.334,89.1674 351.001,89.3341 463.5,90.5 Z"/></g>
<g><path style="opacity:1" fill="#d8d8d8" d="M 223.5,150.5 C 237.833,150.5 252.167,150.5 266.5,150.5C 266.5,199.167 266.5,247.833 266.5,296.5C 252.167,296.5 237.833,296.5 223.5,296.5C 223.5,247.833 223.5,199.167 223.5,150.5 Z"/></g>
<g><path style="opacity:1" fill="#d8d9d8" d="M 317.5,150.5 C 331.833,150.5 346.167,150.5 360.5,150.5C 360.5,199.167 360.5,247.833 360.5,296.5C 346.167,296.5 331.833,296.5 317.5,296.5C 317.5,247.833 317.5,199.167 317.5,150.5 Z"/></g>
<g><path style="opacity:1" fill="#cacaca" d="M 553.5,85.5 C 554.167,85.5 554.833,85.5 555.5,85.5C 555.5,230.833 555.5,376.167 555.5,521.5C 554.833,521.5 554.167,521.5 553.5,521.5C 553.5,376.167 553.5,230.833 553.5,85.5 Z"/></g>
<g><path style="opacity:1" fill="#f2f2f2" d="M 575.5,44.5 C 576.222,44.9175 576.722,45.5842 577,46.5C 577.667,206.167 577.667,365.833 577,525.5C 576.5,526 576,526.5 575.5,527C 569.584,527.19 563.751,527.69 558,528.5C 557.828,535.346 557.328,542.013 556.5,548.5C 556.5,541.167 556.5,533.833 556.5,526.5C 562.509,526.666 568.509,526.499 574.5,526C 575,525.5 575.5,525 576,524.5C 576.833,365.333 576.666,206.333 575.5,47.5C 575.5,46.5 575.5,45.5 575.5,44.5 Z"/></g>
<g><path style="opacity:1" fill="#d8d8d8" d="M 360.5,315.5 C 374.5,315.5 388.5,315.5 402.5,315.5C 402.5,329.833 402.5,344.167 402.5,358.5C 388.5,358.5 374.5,358.5 360.5,358.5C 360.5,372.167 360.5,385.833 360.5,399.5C 314.833,399.5 269.167,399.5 223.5,399.5C 223.5,386.167 223.5,372.833 223.5,359.5C 209.5,359.5 195.5,359.5 181.5,359.5C 181.5,345.167 181.5,330.833 181.5,316.5C 195.5,316.5 209.5,316.5 223.5,316.5C 223.5,329.833 223.5,343.167 223.5,356.5C 269.167,356.5 314.833,356.5 360.5,356.5C 360.5,342.833 360.5,329.167 360.5,315.5 Z"/></g>
<g><path style="opacity:1" fill="#f0f0f0" d="M 3.5,46.5 C 3.5,47.1667 3.5,47.8333 3.5,48.5C 2.33386,206.666 2.16719,364.999 3,523.5C 3.37424,524.416 3.87424,525.25 4.5,526C 10.9135,526.207 17.2469,526.707 23.5,527.5C 23.5,533.167 23.5,538.833 23.5,544.5C 23.5,546.167 23.5,547.833 23.5,549.5C 22.8826,549.389 22.3826,549.056 22,548.5C 21.6667,542.167 21.3333,535.833 21,529.5C 15.2488,528.69 9.41551,528.19 3.5,528C 2.0611,527.009 1.0611,525.676 0.5,524C 1.33256,365.236 1.83256,206.403 2,47.5C 2.38258,46.944 2.88258,46.6107 3.5,46.5 Z"/></g>
<g><path style="opacity:1" fill="#cbcbcb" d="M 23.5,85.5 C 24.1667,85.5 24.8333,85.5 25.5,85.5C 26.1597,230.971 26.1597,376.305 25.5,521.5C 23.5015,376.504 22.8349,231.17 23.5,85.5 Z"/></g>
<g><path style="opacity:1" fill="#e4e4e4" d="M 3.5,48.5 C 3.5,206.5 3.5,364.5 3.5,522.5C 10.1667,522.5 16.8333,522.5 23.5,522.5C 23.5,524.167 23.5,525.833 23.5,527.5C 17.2469,526.707 10.9135,526.207 4.5,526C 3.87424,525.25 3.37424,524.416 3,523.5C 2.16719,364.999 2.33386,206.666 3.5,48.5 Z"/></g>
<g><path style="opacity:1" fill="#000000" d="M 91.5,422.5 C 92.1667,422.5 92.8333,422.5 93.5,422.5C 100.833,422.5 108.167,422.5 115.5,422.5C 115.5,430.167 115.5,437.833 115.5,445.5C 107.5,445.5 99.5,445.5 91.5,445.5C 91.5,437.833 91.5,430.167 91.5,422.5 Z"/></g>
<g><path style="opacity:1" fill="#000000" d="M 491.5,422.5 C 491.5,423.833 491.5,425.167 491.5,426.5C 491.5,432.833 491.5,439.167 491.5,445.5C 483.5,445.5 475.5,445.5 467.5,445.5C 467.5,437.833 467.5,430.167 467.5,422.5C 475.5,422.5 483.5,422.5 491.5,422.5 Z"/></g>
<g><path style="opacity:1" fill="#d9d9d9" d="M 67.5,422.5 C 75.5,422.5 83.5,422.5 91.5,422.5C 91.5,430.167 91.5,437.833 91.5,445.5C 91.1667,445.5 90.8333,445.5 90.5,445.5C 90.8082,439.575 90.4749,433.741 89.5,428C 82.1742,427.5 74.8409,427.334 67.5,427.5C 67.5,425.833 67.5,424.167 67.5,422.5 Z"/></g>
<g><path style="opacity:1" fill="#fdfdfd" d="M 67.5,427.5 C 74.8409,427.334 82.1742,427.5 89.5,428C 90.4749,433.741 90.8082,439.575 90.5,445.5C 82.8333,445.5 75.1667,445.5 67.5,445.5C 67.5,439.5 67.5,433.5 67.5,427.5 Z"/></g>
<g><path style="opacity:1" fill="#fdfdfd" d="M 491.5,445.5 C 491.5,439.167 491.5,432.833 491.5,426.5C 499.42,426.815 507.253,426.482 515,425.5C 515.5,432.158 515.666,438.825 515.5,445.5C 507.5,445.5 499.5,445.5 491.5,445.5 Z"/></g>
<g><path style="opacity:1" fill="#000000" d="M 115.5,445.5 C 232.833,445.5 350.167,445.5 467.5,445.5C 467.5,453.167 467.5,460.833 467.5,468.5C 467.5,468.833 467.5,469.167 467.5,469.5C 350.167,469.5 232.833,469.5 115.5,469.5C 115.5,469.167 115.5,468.833 115.5,468.5C 115.5,460.833 115.5,453.167 115.5,445.5 Z"/></g>
<g><path style="opacity:1" fill="#fdfdfd" d="M 467.5,445.5 C 475.5,445.5 483.5,445.5 491.5,445.5C 491.5,453.167 491.5,460.833 491.5,468.5C 483.5,468.5 475.5,468.5 467.5,468.5C 467.5,460.833 467.5,453.167 467.5,445.5 Z"/></g>
<g><path style="opacity:1" fill="#fdfdfd" d="M 91.5,450.5 C 99.1667,450.5 106.833,450.5 114.5,450.5C 114.5,456.5 114.5,462.5 114.5,468.5C 106.833,468.5 99.1667,468.5 91.5,468.5C 91.5,462.5 91.5,456.5 91.5,450.5 Z"/></g>
<g><path style="opacity:1" fill="#d9d9d9" d="M 91.5,445.5 C 99.5,445.5 107.5,445.5 115.5,445.5C 115.5,453.167 115.5,460.833 115.5,468.5C 115.167,468.5 114.833,468.5 114.5,468.5C 114.5,462.5 114.5,456.5 114.5,450.5C 106.833,450.5 99.1667,450.5 91.5,450.5C 91.5,448.833 91.5,447.167 91.5,445.5 Z"/></g>
<g><path style="opacity:1" fill="#fefefe" d="M 115.5,469.5 C 232.833,469.5 350.167,469.5 467.5,469.5C 467.5,471.167 467.5,472.833 467.5,474.5C 467.5,480.5 467.5,486.5 467.5,492.5C 350.167,492.5 232.833,492.5 115.5,492.5C 115.5,486.167 115.5,479.833 115.5,473.5C 115.5,472.167 115.5,470.833 115.5,469.5 Z"/></g>
<g><path style="opacity:1" fill="#717271" d="M 455.5,508.5 C 455.5,514.833 455.5,521.167 455.5,527.5C 447.5,527.5 439.5,527.5 431.5,527.5C 431.5,520.833 431.5,514.167 431.5,507.5C 431.5,506.5 431.5,505.5 431.5,504.5C 439.5,504.5 447.5,504.5 455.5,504.5C 455.5,505.833 455.5,507.167 455.5,508.5 Z"/></g>
<g><path style="opacity:1" fill="#727272" d="M 467.5,504.5 C 475.5,504.5 483.5,504.5 491.5,504.5C 491.5,512.167 491.5,519.833 491.5,527.5C 483.5,527.5 475.5,527.5 467.5,527.5C 467.5,519.833 467.5,512.167 467.5,504.5 Z"/></g>
<g><path style="opacity:1" fill="#000000" d="M 553.5,521.5 C 554.167,521.5 554.833,521.5 555.5,521.5C 555.5,529.167 555.5,536.833 555.5,544.5C 547.5,544.5 539.5,544.5 531.5,544.5C 531.5,536.833 531.5,529.167 531.5,521.5C 538.833,521.5 546.167,521.5 553.5,521.5 Z"/></g>
<g><path style="opacity:1" fill="#c0c0c0" d="M 431.5,507.5 C 431.5,514.167 431.5,520.833 431.5,527.5C 439.5,527.5 447.5,527.5 455.5,527.5C 455.5,521.167 455.5,514.833 455.5,508.5C 456.823,511.938 457.49,515.771 457.5,520C 457.167,523.833 456.833,527.667 456.5,531.5C 450.466,533.113 444.299,534.113 438,534.5C 435.101,534.023 432.434,533.023 430,531.5C 429.333,523.833 429.333,516.167 430,508.5C 430.383,507.944 430.883,507.611 431.5,507.5 Z"/></g>
<g><path style="opacity:1" fill="#000000" d="M 47.5,544.5 C 208.833,544.5 370.167,544.5 531.5,544.5C 532.126,551.584 531.459,558.25 529.5,564.5C 508.833,564.5 488.167,564.5 467.5,564.5C 467.5,565.5 467.5,566.5 467.5,567.5C 467.5,574.167 467.5,580.833 467.5,587.5C 459.5,587.5 451.5,587.5 443.5,587.5C 443.5,581.167 443.5,574.833 443.5,568.5C 443.5,567.167 443.5,565.833 443.5,564.5C 342.167,564.5 240.833,564.5 139.5,564.5C 139.5,565.5 139.5,566.5 139.5,567.5C 139.5,574.167 139.5,580.833 139.5,587.5C 131.5,587.5 123.5,587.5 115.5,587.5C 115.5,581.833 115.5,576.167 115.5,570.5C 115.5,569.833 115.5,569.167 115.5,568.5C 115.5,567.167 115.5,565.833 115.5,564.5C 93.1667,564.5 70.8333,564.5 48.5,564.5C 47.5093,558.021 47.176,551.354 47.5,544.5 Z"/></g>
<g><path style="opacity:1" fill="#e0e0e0" d="M 575.5,47.5 C 576.666,206.333 576.833,365.333 576,524.5C 575.5,525 575,525.5 574.5,526C 568.509,526.499 562.509,526.666 556.5,526.5C 556.5,533.833 556.5,541.167 556.5,548.5C 548.881,549.268 541.214,549.768 533.5,550C 533.113,556.299 532.113,562.466 530.5,568.5C 510.508,569.333 490.508,569.833 470.5,570C 468.575,575.536 467.908,581.369 468.5,587.5C 468.167,587.5 467.833,587.5 467.5,587.5C 467.5,580.833 467.5,574.167 467.5,567.5C 488.167,567.5 508.833,567.5 529.5,567.5C 529.5,566.5 529.5,565.5 529.5,564.5C 531.459,558.25 532.126,551.584 531.5,544.5C 539.5,544.5 547.5,544.5 555.5,544.5C 555.5,536.833 555.5,529.167 555.5,521.5C 562.167,521.5 568.833,521.5 575.5,521.5C 575.5,363.5 575.5,205.5 575.5,47.5 Z"/></g>
<g><path style="opacity:1" fill="#c5c5c5" d="M 48.5,564.5 C 70.8333,564.5 93.1667,564.5 115.5,564.5C 115.5,565.833 115.5,567.167 115.5,568.5C 93.2418,567.511 70.9085,567.178 48.5,567.5C 48.5,566.5 48.5,565.5 48.5,564.5 Z"/></g>
<g><path style="opacity:1" fill="#a7a7a7" d="M 443.5,568.5 C 342.237,567.502 240.904,567.169 139.5,567.5C 139.5,566.5 139.5,565.5 139.5,564.5C 240.833,564.5 342.167,564.5 443.5,564.5C 443.5,565.833 443.5,567.167 443.5,568.5 Z"/></g>
<g><path style="opacity:1" fill="#c5c5c5" d="M 529.5,564.5 C 529.5,565.5 529.5,566.5 529.5,567.5C 508.833,567.5 488.167,567.5 467.5,567.5C 467.5,566.5 467.5,565.5 467.5,564.5C 488.167,564.5 508.833,564.5 529.5,564.5 Z"/></g>
<g><path style="opacity:1" fill="#bcbcbc" d="M 139.5,567.5 C 240.904,567.169 342.237,567.502 443.5,568.5C 443.5,574.833 443.5,581.167 443.5,587.5C 451.5,587.5 459.5,587.5 467.5,587.5C 468.097,592.294 467.43,596.627 465.5,600.5C 465.756,598.208 465.423,596.041 464.5,594C 457.253,593.815 450.087,593.315 443,592.5C 442.5,584.841 442.334,577.174 442.5,569.5C 342.499,569.333 242.499,569.5 142.5,570C 140.727,576.221 139.894,582.721 140,589.5C 139.167,590.333 138.333,591.167 137.5,592C 131.167,592.333 124.833,592.667 118.5,593C 117.565,595.381 117.232,597.881 117.5,600.5C 115.57,596.627 114.903,592.294 115.5,587.5C 123.5,587.5 131.5,587.5 139.5,587.5C 139.5,580.833 139.5,574.167 139.5,567.5 Z"/></g>
<g><path style="opacity:1" fill="#dfdfdf" d="M 23.5,544.5 C 31.5,544.5 39.5,544.5 47.5,544.5C 47.176,551.354 47.5093,558.021 48.5,564.5C 48.5,565.5 48.5,566.5 48.5,567.5C 70.9085,567.178 93.2418,567.511 115.5,568.5C 115.5,569.167 115.5,569.833 115.5,570.5C 93.197,569.698 70.8636,569.198 48.5,569C 48,568.5 47.5,568 47,567.5C 46.8104,561.584 46.3104,555.751 45.5,550C 38.1742,549.5 30.8409,549.334 23.5,549.5C 23.5,547.833 23.5,546.167 23.5,544.5 Z"/></g>
<g><path style="opacity:1" fill="#d8d8d8" d="M 465.5,600.5 C 349.5,600.5 233.5,600.5 117.5,600.5C 117.232,597.881 117.565,595.381 118.5,593C 124.833,592.667 131.167,592.333 137.5,592C 138.333,591.167 139.167,590.333 140,589.5C 139.894,582.721 140.727,576.221 142.5,570C 242.499,569.5 342.499,569.333 442.5,569.5C 442.334,577.174 442.5,584.841 443,592.5C 450.087,593.315 457.253,593.815 464.5,594C 465.423,596.041 465.756,598.208 465.5,600.5 Z"/></g>
<g><path style="opacity:1" fill="#000000" d="M 115.5,587.5 C 114.903,592.294 115.57,596.627 117.5,600.5C 233.5,600.5 349.5,600.5 465.5,600.5C 467.43,596.627 468.097,592.294 467.5,587.5C 467.833,587.5 468.167,587.5 468.5,587.5C 476.167,587.5 483.833,587.5 491.5,587.5C 491.829,600.011 491.495,612.345 490.5,624.5C 483.167,624.5 475.833,624.5 468.5,624.5C 350.833,624.5 233.167,624.5 115.5,624.5C 107.5,624.5 99.5,624.5 91.5,624.5C 91.5,613.5 91.5,602.5 91.5,591.5C 91.5,590.167 91.5,588.833 91.5,587.5C 99.5,587.5 107.5,587.5 115.5,587.5 Z"/></g>
<g><path style="opacity:1" fill="#c6c6c6" d="M 468.5,624.5 C 475.833,624.5 483.167,624.5 490.5,624.5C 490.5,625.5 490.5,626.5 490.5,627.5C 483.492,627.666 476.492,627.5 469.5,627C 468.748,626.329 468.414,625.496 468.5,624.5 Z"/></g>
<g><path style="opacity:1" fill="#dadada" d="M 91.5,591.5 C 91.5,602.5 91.5,613.5 91.5,624.5C 99.5,624.5 107.5,624.5 115.5,624.5C 115.863,626.911 114.863,628.411 112.5,629C 105.833,629.667 99.1667,629.667 92.5,629C 92,628.5 91.5,628 91,627.5C 90.1737,615.326 90.3403,603.326 91.5,591.5 Z"/></g>
</svg>
